<svg width="48" height="46" viewBox="0 0 48 46" fill="none" xmlns="http://www.w3.org/2000/svg">
<g clip-path="url(#clip0_2022_16)">
<path d="M39.7484 43.5948H8.25115C7.74331 43.5948 7.3311 43.2007 7.3311 42.7131V26.2771L0.917794 26.2647C0.546106 26.2638 0.211203 26.0486 0.0694996 25.7199C-0.0722034 25.3901 0.00691036 25.0119 0.269152 24.7597L23.3273 2.66238C23.537 2.46226 23.8369 2.37321 24.1248 2.41552C24.3981 2.45782 24.6354 2.61563 24.7735 2.84309L30.1417 7.98761V6.34511C30.1417 5.85843 30.5529 5.4634 31.0617 5.4634H36.4667C36.9755 5.4634 37.3868 5.85843 37.3868 6.34511V14.9308L47.7304 24.8443C47.9936 25.0965 48.0727 25.4765 47.9301 25.8062C47.7875 26.1351 47.4516 26.3493 47.08 26.3493C47.079 26.3493 47.079 26.3493 47.0781 26.3493L40.6676 26.3369V42.7131C40.6685 43.2007 40.2572 43.5948 39.7484 43.5948ZM9.17121 41.8314H38.8285V25.4536C38.8285 25.2191 38.9251 24.9942 39.099 24.8294C39.2719 24.6645 39.5047 24.5719 39.7485 24.5719C39.7494 24.5719 39.7494 24.5719 39.7503 24.5719L44.8554 24.5815L35.8173 15.9191C35.6443 15.7534 35.5477 15.5294 35.5477 15.2958V7.22683H31.9827V10.1169C31.9827 10.4731 31.7592 10.7949 31.4151 10.9316C31.0719 11.0691 30.6763 10.9933 30.4123 10.7402L23.9567 4.55359L3.13694 24.5058L8.25308 24.5155C8.76092 24.5163 9.17121 24.9105 9.17121 25.3972V41.8314Z" fill="#F0EDF2"/>
</g>
<defs>
<clipPath id="clip0_2022_16">
<rect width="48" height="46" fill="white"/>
</clipPath>
</defs>
</svg>
