<svg width="83" height="44" viewBox="0 0 83 44" fill="none" xmlns="http://www.w3.org/2000/svg">
<rect x="0.5" y="0.5" width="82" height="43" rx="14.5" fill="url(#paint0_linear_1_9279)"/>
<rect x="0.5" y="0.5" width="82" height="43" rx="14.5" stroke="url(#paint1_linear_1_9279)"/>
<path d="M13.4746 30C12.804 30 12.293 29.9154 11.9414 29.7461C11.5964 29.5768 11.362 29.3001 11.2383 28.916C11.1211 28.5319 11.0625 28.0208 11.0625 27.3828V17.5586C11.0625 17.3698 11.0951 17.2266 11.1602 17.1289C11.4531 16.6992 11.8633 16.2467 12.3906 15.7715C12.4883 15.6934 12.5729 15.6543 12.6445 15.6543C12.7227 15.6543 12.804 15.6934 12.8887 15.7715C13.1751 16.0189 13.416 16.2565 13.6113 16.4844C13.8066 16.7057 13.9759 16.9206 14.1191 17.1289C14.1842 17.2331 14.2168 17.3763 14.2168 17.5586V26.2207C14.2168 26.6569 14.2949 26.9694 14.4512 27.1582C14.6074 27.347 14.9004 27.4414 15.3301 27.4414L18.3281 27.4316C18.4844 27.4316 18.6016 27.4577 18.6797 27.5098C18.849 27.627 19.0247 27.7669 19.207 27.9297C19.3893 28.0924 19.5814 28.2878 19.7832 28.5156C19.8483 28.6003 19.8809 28.6686 19.8809 28.7207C19.8809 28.7793 19.8483 28.8444 19.7832 28.916C19.5814 29.1439 19.3893 29.3392 19.207 29.502C19.0247 29.6647 18.849 29.8047 18.6797 29.9219C18.5885 29.974 18.4714 30 18.3281 30H13.4746ZM26.9707 30.2441C25.6165 30.2441 24.4382 29.9837 23.4355 29.4629C22.4329 28.9421 21.6549 28.1576 21.1016 27.1094C20.5547 26.0612 20.2812 24.7526 20.2812 23.1836C20.2812 20.6901 20.89 18.8314 22.1074 17.6074C23.3249 16.377 25.0208 15.7617 27.1953 15.7617C29.2331 15.7617 30.8444 16.3639 32.0293 17.5684C33.2142 18.7663 33.8066 20.5436 33.8066 22.9004C33.8066 24.5671 33.5299 25.944 32.9766 27.0312C32.4232 28.112 31.6354 28.9193 30.6133 29.4531C29.5911 29.9805 28.377 30.2441 26.9707 30.2441ZM27.0293 27.6074C28.2012 27.6074 29.0703 27.1875 29.6367 26.3477C30.2031 25.5078 30.4863 24.4173 30.4863 23.0762C30.4863 21.5202 30.2194 20.3516 29.6855 19.5703C29.1517 18.7891 28.2923 18.3984 27.1074 18.3984C24.7702 18.3984 23.6016 19.9382 23.6016 23.0176C23.6016 24.3913 23.8815 25.5013 24.4414 26.3477C25.0078 27.1875 25.8704 27.6074 27.0293 27.6074ZM38.6699 30C37.9993 30 37.4883 29.9154 37.1367 29.7461C36.7917 29.5768 36.5573 29.3001 36.4336 28.916C36.3164 28.5319 36.2578 28.0208 36.2578 27.3828V18.6133C36.2578 17.9622 36.3164 17.4479 36.4336 17.0703C36.5573 16.6862 36.7917 16.4128 37.1367 16.25C37.4883 16.0807 37.9993 15.9961 38.6699 15.9961H41.3555C42.918 15.9961 44.1191 16.2826 44.959 16.8555C45.7988 17.4284 46.2188 18.2357 46.2188 19.2773C46.2188 19.7917 46.1016 20.2604 45.8672 20.6836C45.6328 21.1068 45.3236 21.4681 44.9395 21.7676C44.5618 22.0671 44.1484 22.2917 43.6992 22.4414V22.4805C44.2721 22.5586 44.7897 22.7474 45.252 23.0469C45.7142 23.3398 46.082 23.724 46.3555 24.1992C46.6354 24.668 46.7754 25.2083 46.7754 25.8203C46.7754 26.7318 46.554 27.5 46.1113 28.125C45.6751 28.7435 45.0697 29.2122 44.2949 29.5312C43.5267 29.8438 42.6413 30 41.6387 30H38.6699ZM39.4121 26.4551C39.4121 26.8913 39.4902 27.2038 39.6465 27.3926C39.8027 27.5814 40.0957 27.6758 40.5254 27.6758H41.2676C41.9251 27.6758 42.4525 27.5065 42.8496 27.168C43.2533 26.8294 43.4551 26.3672 43.4551 25.7812C43.4551 25.2214 43.2598 24.7819 42.8691 24.4629C42.4785 24.1439 41.974 23.9844 41.3555 23.9844H41.3652C41.209 23.9844 41.0918 23.9616 41.0137 23.916C40.8444 23.8053 40.6686 23.6784 40.4863 23.5352C40.3105 23.3854 40.1185 23.2064 39.9102 22.998C39.8451 22.9134 39.8125 22.8516 39.8125 22.8125C39.8125 22.7604 39.8451 22.6986 39.9102 22.627C40.1185 22.4186 40.3105 22.2396 40.4863 22.0898C40.6686 21.9401 40.8444 21.8132 41.0137 21.709C41.1048 21.6634 41.222 21.6406 41.3652 21.6406H41.3555C41.7396 21.6406 42.0911 21.4974 42.4102 21.2109C42.7357 20.9245 42.8984 20.4753 42.8984 19.8633C42.8984 19.2448 42.7259 18.8346 42.3809 18.6328C42.0358 18.4245 41.5931 18.3203 41.0527 18.3203H40.5254C40.0957 18.3203 39.8027 18.4115 39.6465 18.5938C39.4902 18.776 39.4121 19.0885 39.4121 19.5312V26.4551ZM51.4434 30C50.7728 30 50.2617 29.9154 49.9102 29.7461C49.5651 29.5768 49.3307 29.3001 49.207 28.916C49.0898 28.5319 49.0312 28.0208 49.0312 27.3828V18.6133C49.0312 17.9622 49.0898 17.4479 49.207 17.0703C49.3307 16.6862 49.5651 16.4128 49.9102 16.25C50.2617 16.0807 50.7728 15.9961 51.4434 15.9961H54.1289C55.6914 15.9961 56.8926 16.2826 57.7324 16.8555C58.5723 17.4284 58.9922 18.2357 58.9922 19.2773C58.9922 19.7917 58.875 20.2604 58.6406 20.6836C58.4062 21.1068 58.097 21.4681 57.7129 21.7676C57.3353 22.0671 56.9219 22.2917 56.4727 22.4414V22.4805C57.0456 22.5586 57.5632 22.7474 58.0254 23.0469C58.4876 23.3398 58.8555 23.724 59.1289 24.1992C59.4089 24.668 59.5488 25.2083 59.5488 25.8203C59.5488 26.7318 59.3275 27.5 58.8848 28.125C58.4486 28.7435 57.8431 29.2122 57.0684 29.5312C56.3001 29.8438 55.4147 30 54.4121 30H51.4434ZM52.1855 26.4551C52.1855 26.8913 52.2637 27.2038 52.4199 27.3926C52.5762 27.5814 52.8691 27.6758 53.2988 27.6758H54.041C54.6986 27.6758 55.2259 27.5065 55.623 27.168C56.0267 26.8294 56.2285 26.3672 56.2285 25.7812C56.2285 25.2214 56.0332 24.7819 55.6426 24.4629C55.252 24.1439 54.7474 23.9844 54.1289 23.9844H54.1387C53.9824 23.9844 53.8652 23.9616 53.7871 23.916C53.6178 23.8053 53.4421 23.6784 53.2598 23.5352C53.084 23.3854 52.8919 23.2064 52.6836 22.998C52.6185 22.9134 52.5859 22.8516 52.5859 22.8125C52.5859 22.7604 52.6185 22.6986 52.6836 22.627C52.8919 22.4186 53.084 22.2396 53.2598 22.0898C53.4421 21.9401 53.6178 21.8132 53.7871 21.709C53.8783 21.6634 53.9954 21.6406 54.1387 21.6406H54.1289C54.513 21.6406 54.8646 21.4974 55.1836 21.2109C55.5091 20.9245 55.6719 20.4753 55.6719 19.8633C55.6719 19.2448 55.4993 18.8346 55.1543 18.6328C54.8092 18.4245 54.3665 18.3203 53.8262 18.3203H53.2988C52.8691 18.3203 52.5762 18.4115 52.4199 18.5938C52.2637 18.776 52.1855 19.0885 52.1855 19.5312V26.4551ZM68.0352 29.4824C68.0352 29.6777 67.9928 29.8145 67.9082 29.8926C67.8301 29.9642 67.6934 30 67.498 30H65.418C65.2227 30 65.0827 29.9642 64.998 29.8926C64.9199 29.8145 64.8809 29.6777 64.8809 29.4824V25.0781L62.9375 22.8223C62.4753 22.2819 62.0846 21.7969 61.7656 21.3672C61.4531 20.9375 61.2188 20.4948 61.0625 20.0391C60.9062 19.5768 60.8281 19.0365 60.8281 18.418V17.5586C60.8281 17.3698 60.8607 17.2266 60.9258 17.1289C61.2188 16.6992 61.6289 16.2467 62.1562 15.7715C62.2539 15.6934 62.3418 15.6543 62.4199 15.6543C62.498 15.6543 62.5794 15.6934 62.6641 15.7715C62.9505 16.0189 63.1914 16.2565 63.3867 16.4844C63.582 16.7057 63.7513 16.9206 63.8945 17.1289C63.9596 17.2331 63.9922 17.3763 63.9922 17.5586V18.4082C63.9922 18.8314 64.1159 19.3001 64.3633 19.8145C64.6107 20.3288 65.0273 20.8952 65.6133 21.5137L66.5605 22.5098L67.4883 21.5137C68.0156 20.9473 68.416 20.4069 68.6895 19.8926C68.9694 19.3783 69.1094 18.8867 69.1094 18.418V17.5586C69.1094 17.3698 69.1419 17.2266 69.207 17.1289C69.487 16.7057 69.8841 16.2533 70.3984 15.7715C70.4961 15.6934 70.5775 15.6543 70.6426 15.6543C70.7207 15.6543 70.8021 15.6934 70.8867 15.7715C71.1602 16.0189 71.3913 16.2565 71.5801 16.4844C71.7754 16.7057 71.9414 16.9206 72.0781 17.1289C72.1432 17.2331 72.1758 17.3763 72.1758 17.5586V18.418C72.1758 19.1341 72.0195 19.821 71.707 20.4785C71.3945 21.1296 70.8639 21.8717 70.1152 22.7051L68.0352 25.0195V29.4824Z" fill="black"/>
<defs>
<linearGradient id="paint0_linear_1_9279" x1="41.5" y1="1" x2="41.5" y2="43" gradientUnits="userSpaceOnUse">
<stop stop-color="#FFF700"/>
<stop offset="1" stop-color="#FBAC00"/>
</linearGradient>
<linearGradient id="paint1_linear_1_9279" x1="41.5" y1="1" x2="42.6097" y2="72.2611" gradientUnits="userSpaceOnUse">
<stop stop-color="#FF313E"/>
<stop offset="0.714428" stop-color="#870009"/>
</linearGradient>
</defs>
</svg>
